<?xml version="1.0" encoding="UTF-8"?>
<!DOCTYPE svg PUBLIC "-//W3C//DTD SVG 1.1//EN" "http://www.w3.org/Graphics/SVG/1.1/DTD/svg11.dtd">
<svg version="1.1" xmlns="http://www.w3.org/2000/svg" xmlns:xlink="http://www.w3.org/1999/xlink" x="0" y="0" width="17.667" height="19.566" viewBox="0, 0, 17.667, 19.566">
  <g id="Layer_1" transform="translate(-1, -1.45)">
    <path d="M5.817,1.45 L5.817,3.348 L13.851,3.348 L13.851,1.45 L14.851,1.45 L14.851,3.348 L16.667,3.348 C17.772,3.349 18.667,4.244 18.667,5.349 L18.667,19.015 C18.667,20.121 17.772,21.016 16.667,21.016 L3,21.015 C1.896,21.016 1,20.121 1,19.016 L1,5.348 C1,4.244 1.896,3.349 3,3.349 L4.817,3.349 L4.817,1.45 L5.817,1.45 z M17.667,8.699 L2,8.699 L2,19.015 C2,19.568 2.448,20.016 3,20.016 L16.667,20.015 C17.22,20.016 17.667,19.568 17.667,19.016 L17.667,8.699 z M14.778,14.852 L14.778,17.352 L12.778,17.352 L12.778,14.852 L14.778,14.852 z M10.833,14.852 L10.833,17.352 L8.833,17.352 L8.833,14.852 L10.833,14.852 z M6.889,14.852 L6.889,17.352 L4.889,17.352 L4.889,14.852 L6.889,14.852 z M6.888,11.228 L6.888,13.728 L4.888,13.728 L4.888,11.228 L6.888,11.228 z M10.833,11.228 L10.833,13.728 L8.833,13.728 L8.833,11.228 L10.833,11.228 z M14.779,11.228 L14.779,13.728 L12.779,13.728 L12.779,11.228 L14.779,11.228 z M16.667,4.348 L3,4.348 C2.448,4.349 2,4.797 2,5.349 L2,7.699 L17.667,7.699 L17.667,5.348 C17.667,4.797 17.22,4.349 16.667,4.349 L16.667,4.348 z" fill="#999999"/>
  </g>
</svg>
