<?xml version="1.0" encoding="UTF-8"?>
<!DOCTYPE svg PUBLIC "-//W3C//DTD SVG 1.1//EN" "http://www.w3.org/Graphics/SVG/1.1/DTD/svg11.dtd">
<svg version="1.1" xmlns="http://www.w3.org/2000/svg" xmlns:xlink="http://www.w3.org/1999/xlink" x="0" y="0" width="30" height="30" viewBox="0, 0, 30, 30">
  <g id="Layer_1" transform="translate(-10, -10)">
    <path d="M37,10 C38.657,10 40,11.343 40,13 L40,37 C40,38.657 38.657,40 37,40 L13,40 C11.343,40 10,38.657 10,37 L10,13 C10,11.343 11.343,10 13,10 L37,10 z M32.074,15.548 C31.651,15.599 31.429,15.793 31.086,16.038 L25,22.123 L18.914,16.038 L18.253,15.598 C17.488,15.584 17.881,15.599 17.074,15.548 C16.651,15.599 16.429,15.793 16.086,16.038 C15.305,16.819 15.305,18.085 16.086,18.866 L22.171,24.952 L16.086,31.038 C15.305,31.819 15.305,33.085 16.086,33.866 C16.867,34.647 18.133,34.647 18.914,33.866 L25,27.78 L31.086,33.866 C31.867,34.647 33.133,34.647 33.914,33.866 C34.695,33.085 34.695,31.819 33.914,31.038 L27.829,24.952 L33.914,18.866 C34.695,18.085 34.695,16.819 33.914,16.038 L33.253,15.598 C32.488,15.584 32.881,15.599 32.074,15.548 z" fill="#FF6B6B"/>
  </g>
</svg>
