<?xml version="1.0" encoding="UTF-8"?>
<!DOCTYPE svg PUBLIC "-//W3C//DTD SVG 1.1//EN" "http://www.w3.org/Graphics/SVG/1.1/DTD/svg11.dtd">
<svg version="1.1" xmlns="http://www.w3.org/2000/svg" xmlns:xlink="http://www.w3.org/1999/xlink" x="0" y="0" width="22.002" height="13.93" viewBox="0, 0, 22.002, 13.93">
  <g id="Layer_1" transform="translate(-13.999, -18.035)">
    <path d="M24.899,31.965 L25.417,31.945 L25.769,31.675 L35.769,19.675 L35.884,19.463 C35.935,19.412 35.919,19.442 35.933,19.372 C35.967,19.31 35.96,19.343 35.953,19.272 L36.001,19.035 C35.92,18.632 36.016,18.739 35.894,18.617 C35.878,18.445 35.898,18.587 35.641,18.267 L35.428,18.152 C35.378,18.101 35.408,18.117 35.338,18.103 C35.276,18.069 35.309,18.076 35.238,18.083 L35.001,18.035 L15.001,18.035 C14.153,18.035 13.69,19.024 14.233,19.675 L24.233,31.675 C24.622,31.981 24.401,31.882 24.899,31.965 z" fill="#414141"/>
  </g>
</svg>
