<?xml version="1.0" encoding="UTF-8"?>
<!DOCTYPE svg PUBLIC "-//W3C//DTD SVG 1.1//EN" "http://www.w3.org/Graphics/SVG/1.1/DTD/svg11.dtd">
<svg version="1.1" xmlns="http://www.w3.org/2000/svg" xmlns:xlink="http://www.w3.org/1999/xlink" x="0" y="0" width="50" height="50" viewBox="0, 0, 50, 50">
  <g id="Layer_1">
    <path d="M24.899,9 L25.417,9.019 L25.769,9.289 L35.769,21.289 L35.884,21.502 C35.935,21.553 35.919,21.523 35.933,21.592 C35.967,21.655 35.96,21.621 35.953,21.692 L36.001,21.93 C35.92,22.332 36.016,22.225 35.894,22.348 C35.878,22.52 35.898,22.378 35.641,22.698 L35.428,22.813 C35.378,22.863 35.408,22.847 35.338,22.861 C35.276,22.895 35.309,22.888 35.238,22.882 L35.001,22.93 L15.001,22.93 C14.153,22.93 13.69,21.941 14.233,21.289 L24.233,9.289 C24.622,8.983 24.401,9.082 24.899,9 z" fill="#B3B3B3"/>
    <path d="M24.899,40.93 L25.417,40.91 L25.769,40.64 L35.769,28.64 L35.884,28.428 C35.935,28.377 35.919,28.407 35.933,28.337 C35.967,28.275 35.96,28.308 35.953,28.237 L36.001,28 C35.92,27.597 36.016,27.704 35.894,27.582 C35.878,27.41 35.898,27.552 35.641,27.232 L35.428,27.117 C35.378,27.066 35.408,27.082 35.338,27.068 C35.276,27.034 35.309,27.041 35.238,27.048 L35.001,27 L15.001,27 C14.153,27 13.69,27.989 14.233,28.64 L24.233,40.64 C24.622,40.946 24.401,40.847 24.899,40.93 z" fill="#B3B3B3"/>
  </g>
</svg>
